<svg width="520" height="360" viewBox="0 0 520 360" fill="none" xmlns="http://www.w3.org/2000/svg"><rect width="520" height="360" rx="28" fill="url(#a)"/><path d="M108 252C166 214 257 204 340 217C403 227 447 254 459 286C465 300 452 316 429 320C306 342 150 338 82 311C58 301 65 278 108 252Z" fill="#FFF8F0"/><path d="M190 184C230 163 294 161 350 176C373 183 376 200 359 212C307 251 188 247 160 214C152 204 166 191 190 184Z" fill="#F7E7D7"/><defs><linearGradient id="a" x1="40" y1="23" x2="456" y2="321" gradientUnits="userSpaceOnUse"><stop stop-color="#F1E4D7"/><stop offset="1" stop-color="#D9BDA1"/></linearGradient></defs></svg>
