<svg width="520" height="360" viewBox="0 0 520 360" fill="none" xmlns="http://www.w3.org/2000/svg"><rect width="520" height="360" rx="28" fill="url(#a)"/><path d="M117 252C172 219 256 209 339 221C397 230 435 254 450 282C458 298 447 315 425 320C315 340 168 338 95 313C64 302 71 278 117 252Z" fill="#FFFFFF"/><path d="M207 184C246 160 307 160 343 180C360 189 360 205 344 216C298 246 204 243 178 213C169 203 184 194 207 184Z" fill="#F2F2F2"/><defs><linearGradient id="a" x1="40" y1="23" x2="455" y2="322" gradientUnits="userSpaceOnUse"><stop stop-color="#F1F1F1"/><stop offset="1" stop-color="#CAC8C7"/></linearGradient></defs></svg>
