<svg width="520" height="360" viewBox="0 0 520 360" fill="none" xmlns="http://www.w3.org/2000/svg"><rect width="520" height="360" rx="28" fill="url(#a)"/><path d="M122 242C180 211 260 204 339 215C396 223 434 245 454 281C463 298 451 315 429 319C305 340 170 338 96 313C58 301 67 271 122 242Z" fill="#FFFDF8"/><path d="M216 180C246 162 299 161 336 176C354 184 354 205 338 216C300 242 222 238 194 212C180 200 191 189 216 180Z" fill="#FDF7F2"/><defs><linearGradient id="a" x1="36" y1="26" x2="458" y2="319" gradientUnits="userSpaceOnUse"><stop stop-color="#DFDBFB"/><stop offset="1" stop-color="#C6BDE7"/></linearGradient></defs></svg>
