<svg width="520" height="360" viewBox="0 0 520 360" fill="none" xmlns="http://www.w3.org/2000/svg"><rect width="520" height="360" rx="28" fill="url(#a)"/><path d="M111 255C166 216 253 207 337 220C401 230 445 256 458 287C464 301 453 318 430 321C311 343 159 339 85 312C58 302 68 279 111 255Z" fill="#FFF6EF"/><path d="M204 187C243 164 302 163 345 177C365 184 367 201 352 214C303 253 199 246 174 214C166 203 180 194 204 187Z" fill="#E8D5C6"/><defs><linearGradient id="a" x1="40" y1="25" x2="455" y2="321" gradientUnits="userSpaceOnUse"><stop stop-color="#EADCCF"/><stop offset="1" stop-color="#CEB5A6"/></linearGradient></defs></svg>
