<svg width="520" height="360" viewBox="0 0 520 360" fill="none" xmlns="http://www.w3.org/2000/svg"><rect width="520" height="360" rx="28" fill="url(#a)"/><path d="M115 250C166 219 258 211 335 219C396 226 437 247 452 275C461 293 451 315 428 320C321 341 168 338 90 311C61 300 66 279 115 250Z" fill="#FFFCFA"/><path d="M207 182C245 161 307 161 344 180C362 189 360 209 341 222C293 253 187 241 175 209C171 199 184 191 207 182Z" fill="#F7F2EE"/><defs><linearGradient id="a" x1="37" y1="25" x2="462" y2="324" gradientUnits="userSpaceOnUse"><stop stop-color="#FBF7F3"/><stop offset="1" stop-color="#DDD4CD"/></linearGradient></defs></svg>
