<svg width="520" height="360" viewBox="0 0 520 360" fill="none" xmlns="http://www.w3.org/2000/svg"><rect width="520" height="360" rx="28" fill="url(#a)"/><path d="M101 256C161 216 252 208 336 220C399 229 443 255 457 286C463 300 452 317 430 321C311 343 150 340 81 313C57 303 63 281 101 256Z" fill="#FFFDF8"/><path d="M193 189C229 166 296 165 347 179C365 184 371 199 358 210C314 248 196 246 162 216C149 205 165 193 193 189Z" fill="#F4EEE7"/><defs><linearGradient id="a" x1="43" y1="27" x2="457" y2="323" gradientUnits="userSpaceOnUse"><stop stop-color="#F8EFEA"/><stop offset="1" stop-color="#E8DDD4"/></linearGradient></defs></svg>
