<svg width="520" height="360" viewBox="0 0 520 360" fill="none" xmlns="http://www.w3.org/2000/svg"><rect width="520" height="360" rx="28" fill="url(#a)"/><path d="M118 249C177 219 263 209 344 221C404 230 442 252 458 282C466 297 453 315 431 320C311 344 160 338 91 311C61 299 69 275 118 249Z" fill="#EAE7E5"/><path d="M205 180C243 160 307 161 345 179C365 188 365 209 347 221C298 251 197 243 174 211C167 200 181 192 205 180Z" fill="#BEBBC0"/><defs><linearGradient id="a" x1="44" y1="22" x2="458" y2="322" gradientUnits="userSpaceOnUse"><stop stop-color="#5B5D67"/><stop offset="1" stop-color="#23242B"/></linearGradient></defs></svg>
