<svg width="520" height="360" viewBox="0 0 520 360" fill="none" xmlns="http://www.w3.org/2000/svg"><rect width="520" height="360" rx="28" fill="url(#a)"/><path d="M102 252C161 216 257 204 337 218C405 229 450 258 462 286C468 300 457 316 439 320C308 346 153 339 83 311C57 300 65 274 102 252Z" fill="#FFF8F4"/><path d="M182 190C221 165 288 160 340 176C365 184 368 204 348 219C293 260 172 248 150 213C143 203 155 194 182 190Z" fill="#FFF1EE"/><defs><linearGradient id="a" x1="41" y1="22" x2="456" y2="321" gradientUnits="userSpaceOnUse"><stop stop-color="#F6DFDF"/><stop offset="1" stop-color="#DFBABF"/></linearGradient></defs></svg>
